<svg width="32" height="32" viewBox="0 0 32 32" fill="none" xmlns="http://www.w3.org/2000/svg"><path d="M32 16c0-8.838-7.163-16-16-16C7.162 0 0 7.162 0 16c0 7.988 5.85 14.606 13.5 15.806V20.625H9.437V16H13.5v-3.525c0-4.01 2.387-6.225 6.044-6.225 1.75 0 3.581.313 3.581.313V10.5h-2.019c-1.987 0-2.606 1.234-2.606 2.5v3h4.438l-.71 4.625H18.5v11.181C26.15 30.606 32 23.987 32 16z" fill="#1877F2"/><path d="M22.228 20.625l.71-4.625H18.5v-3c0-1.266.619-2.5 2.606-2.5h2.019V6.562s-1.831-.312-3.581-.312c-3.657 0-6.044 2.216-6.044 6.225V16H9.437v4.625H13.5v11.181c.816.128 1.65.194 2.5.194.85 0 1.684-.066 2.5-.194V20.625h3.728z" fill="#fff"/></svg>