<svg width="384" height="392" viewBox="0 0 384 392" fill="none" xmlns="http://www.w3.org/2000/svg"><g filter="url(#filter0_ii)" opacity=".9"><path d="M230.227 312.748c23.675-21.714 36.348-50.974 37.755-80.76.558-11.987 7.291-22.783 17.788-28.637a75.97 75.97 0 0014.47-10.422c30.288-27.855 32.461-75.364 4.856-105.882-28.065-31.02-75.937-33.168-106.681-4.97a74.669 74.669 0 00-11.331 13.087c-6.692 9.834-18.133 15.245-29.998 14.652-30.184-1.505-60.909 8.576-84.919 30.597-47.6 43.659-50.796 117.596-7.137 165.197 43.773 47.727 117.47 50.911 165.197 7.138z" fill="#E9FFE2"/></g><defs><filter id="filter0_ii" x="-22" y="-4" width="405.322" height="395.778" filterUnits="userSpaceOnUse" color-interpolation-filters="sRGB"><feFlood flood-opacity="0" result="BackgroundImageFix"/><feBlend in="SourceGraphic" in2="BackgroundImageFix" result="shape"/><feColorMatrix in="SourceAlpha" values="0 0 0 0 0 0 0 0 0 0 0 0 0 0 0 0 0 0 127 0" result="hardAlpha"/><feOffset dx="-4" dy="-4"/><feGaussianBlur stdDeviation="14"/><feComposite in2="hardAlpha" operator="arithmetic" k2="-1" k3="1"/><feColorMatrix values="0 0 0 0 1 0 0 0 0 1 0 0 0 0 1 0 0 0 0.8 0"/><feBlend in2="shape" result="effect1_innerShadow"/><feColorMatrix in="SourceAlpha" values="0 0 0 0 0 0 0 0 0 0 0 0 0 0 0 0 0 0 127 0" result="hardAlpha"/><feOffset dx="-8" dy="-4"/><feGaussianBlur stdDeviation="10"/><feComposite in2="hardAlpha" operator="arithmetic" k2="-1" k3="1"/><feColorMatrix values="0 0 0 0 1 0 0 0 0 1 0 0 0 0 1 0 0 0 0.8 0"/><feBlend in2="effect1_innerShadow" result="effect2_innerShadow"/></filter></defs></svg>