<svg width="343" height="365" viewBox="0 0 343 365" fill="none" xmlns="http://www.w3.org/2000/svg"><g opacity=".8"><g filter="url(#filter0_ii)"><path d="M195.694 299.26c22.654-20.777 34.78-48.775 36.127-77.277.534-11.47 6.977-21.801 17.021-27.402a72.724 72.724 0 0013.846-9.972c28.981-26.655 31.061-72.115 4.646-101.316-26.854-29.682-72.661-31.738-102.08-4.757a71.46 71.46 0 00-10.842 12.524c-6.403 9.41-17.351 14.588-28.705 14.02-28.882-1.44-58.281 8.207-81.256 29.278-45.548 41.775-48.605 112.524-6.83 158.072 41.886 45.669 112.405 48.716 158.073 6.83z" fill="#ECFFD8"/></g><path d="M248.478 193.926h-.001c-10.269 5.726-16.859 16.291-17.405 28.022-1.338 28.313-13.383 56.122-35.885 76.759-45.363 41.606-115.407 38.579-157.013-6.784C-3.32 246.68-.285 176.406 44.958 134.91c22.82-20.929 52.021-30.511 80.712-29.081 11.602.58 22.805-4.711 29.362-14.347h.001a70.664 70.664 0 0110.728-12.393c29.112-26.7 74.442-24.666 101.017 4.707 26.138 28.896 24.08 73.885-4.598 100.261a71.991 71.991 0 01-13.702 9.869z" stroke="#fff" stroke-width="1.5"/></g><defs><filter id="filter0_ii" x="-46" y="-4" width="388.186" height="378.882" filterUnits="userSpaceOnUse" color-interpolation-filters="sRGB"><feFlood flood-opacity="0" result="BackgroundImageFix"/><feBlend in="SourceGraphic" in2="BackgroundImageFix" result="shape"/><feColorMatrix in="SourceAlpha" values="0 0 0 0 0 0 0 0 0 0 0 0 0 0 0 0 0 0 127 0" result="hardAlpha"/><feOffset dx="-4" dy="-4"/><feGaussianBlur stdDeviation="14"/><feComposite in2="hardAlpha" operator="arithmetic" k2="-1" k3="1"/><feColorMatrix values="0 0 0 0 1 0 0 0 0 1 0 0 0 0 1 0 0 0 0.8 0"/><feBlend in2="shape" result="effect1_innerShadow"/><feColorMatrix in="SourceAlpha" values="0 0 0 0 0 0 0 0 0 0 0 0 0 0 0 0 0 0 127 0" result="hardAlpha"/><feOffset dx="-8" dy="-4"/><feGaussianBlur stdDeviation="10"/><feComposite in2="hardAlpha" operator="arithmetic" k2="-1" k3="1"/><feColorMatrix values="0 0 0 0 1 0 0 0 0 1 0 0 0 0 1 0 0 0 0.8 0"/><feBlend in2="effect1_innerShadow" result="effect2_innerShadow"/></filter></defs></svg>