<svg width="32" height="32" viewBox="0 0 32 32" fill="none" xmlns="http://www.w3.org/2000/svg"><circle cx="16" cy="16" r="16" fill="#1DA1F2"/><path d="M12.701 23.15c6.709 0 10.378-5.48 10.378-10.234 0-.156 0-.31-.01-.465a7.366 7.366 0 001.82-1.862 7.357 7.357 0 01-2.096.566 3.618 3.618 0 001.604-1.99 7.37 7.37 0 01-2.316.874 3.667 3.667 0 00-2.07-1.087 3.695 3.695 0 00-2.313.379 3.62 3.62 0 00-1.602 1.688 3.554 3.554 0 00-.231 2.3 10.469 10.469 0 01-4.164-1.09A10.33 10.33 0 018.348 9.56a3.557 3.557 0 00-.4 2.621 3.6 3.6 0 001.529 2.18 3.66 3.66 0 01-1.656-.45v.046c0 .83.292 1.635.826 2.278a3.658 3.658 0 002.1 1.248c-.536.144-1.1.166-1.646.062.233.715.687 1.34 1.298 1.787a3.685 3.685 0 002.11.71 7.384 7.384 0 01-5.399 1.492 10.431 10.431 0 005.591 1.613" fill="#fff"/></svg>