<svg xmlns="http://www.w3.org/2000/svg" viewBox="-949 531 20 20"><path fill="#0096fa" d="M-939 531c-5.5 0-10 4.5-10 10s4.5 10 10 10 10-4.5 10-10-4.5-10-10-10z"/><path fill="#FFF" d="M-933.9 536.1c-1.1-.9-2.6-1.5-4.3-1.5-4.5 0-7.6 3.5-7.6 3.5l.9 1.4s.5 0 .2-.8c.2-.4.7-1 1.5-1.6v9.3c-.4.1-.8.3-.5.6h2.5c.3-.3-.2-.5-.5-.6v-2.2s1.7.7 3.6.7c1.6 0 3.1-.5 4.2-1.4 1.1-.9 1.8-2.2 1.8-3.7-.1-1.4-.7-2.7-1.8-3.7zm-1.3 6.7c-.8.8-1.9 1.2-3.1 1.2-1.4 0-2.6-.3-3.4-.7v-7c.9-.6 2.3-1 3.4-1 1.4 0 2.5.5 3.2 1.3.7.8 1.1 1.9 1.1 3.1 0 1.3-.4 2.3-1.2 3.1z"/></svg>