<svg width="509" height="380" viewBox="0 0 509 380" fill="none" xmlns="http://www.w3.org/2000/svg"><g opacity=".9"><g filter="url(#filter0_ii)"><path d="M215.221 43.478c-33.253 23.73-53.792 58.69-60.195 96.066-2.566 15.042-12.741 27.623-26.898 33.38a96.655 96.655 0 00-19.881 10.906c-42.553 30.454-52.674 90.078-22.573 132.883 30.604 43.509 90.69 53.655 133.872 22.842 6.11-4.36 11.6-9.342 16.334-14.76 9.973-11.372 25.254-16.424 40.137-13.833 37.862 6.587 78.206-1.365 111.929-25.429 66.859-47.709 82.374-140.531 34.665-207.39-47.835-67.035-140.355-82.5-207.39-34.665z" fill="#D3F7FF"/></g><path d="M128.41 173.619h.001c14.395-5.854 24.744-18.649 27.355-33.949 6.37-37.189 26.805-71.972 59.89-95.581C282.354-3.505 374.406 11.881 422 78.579c47.469 66.521 32.032 158.875-34.489 206.344-33.553 23.942-73.692 31.854-111.365 25.3-15.129-2.634-30.676 2.5-40.83 14.078l-.001.001c-4.695 5.373-10.141 10.315-16.205 14.642-42.844 30.573-102.459 20.505-132.823-22.663-29.864-42.467-19.821-101.626 22.396-131.84a95.858 95.858 0 0119.727-10.822z" stroke="#fff" stroke-width="1.5"/></g><defs><filter id="filter0_ii" x="-7.81" y="-46.884" width="516.784" height="485.859" filterUnits="userSpaceOnUse" color-interpolation-filters="sRGB"><feFlood flood-opacity="0" result="BackgroundImageFix"/><feBlend in="SourceGraphic" in2="BackgroundImageFix" result="shape"/><feColorMatrix in="SourceAlpha" values="0 0 0 0 0 0 0 0 0 0 0 0 0 0 0 0 0 0 127 0" result="hardAlpha"/><feOffset dx="-4" dy="-4"/><feGaussianBlur stdDeviation="35"/><feComposite in2="hardAlpha" operator="arithmetic" k2="-1" k3="1"/><feColorMatrix values="0 0 0 0 1 0 0 0 0 1 0 0 0 0 1 0 0 0 0.8 0"/><feBlend in2="shape" result="effect1_innerShadow"/><feColorMatrix in="SourceAlpha" values="0 0 0 0 0 0 0 0 0 0 0 0 0 0 0 0 0 0 127 0" result="hardAlpha"/><feOffset dx="-8" dy="-4"/><feGaussianBlur stdDeviation="25"/><feComposite in2="hardAlpha" operator="arithmetic" k2="-1" k3="1"/><feColorMatrix values="0 0 0 0 1 0 0 0 0 1 0 0 0 0 1 0 0 0 0.8 0"/><feBlend in2="effect1_innerShadow" result="effect2_innerShadow"/></filter></defs></svg>