<svg width="580" height="557" viewBox="0 0 580 557" fill="none" xmlns="http://www.w3.org/2000/svg"><g opacity=".9"><g filter="url(#filter0_ii)"><path d="M248.157 99.667c-38.376 27.384-62.079 67.731-69.467 110.864-2.962 17.36-14.704 31.879-31.042 38.523a111.512 111.512 0 00-22.944 12.587c-49.108 35.145-60.789 103.954-26.05 153.353 35.318 50.212 104.66 61.921 154.495 26.361 7.051-5.032 13.386-10.781 18.85-17.033 11.509-13.125 29.145-18.955 46.32-15.965 43.695 7.602 90.254-1.575 129.172-29.346 77.159-55.059 95.064-162.181 40.005-239.339-55.204-77.362-161.977-95.209-239.339-40.005z" fill="#D3F7FF"/></g><path d="M147.929 249.749h.002c16.576-6.741 28.492-21.473 31.498-39.091 7.357-42.947 30.956-83.116 69.164-110.38 77.024-54.964 183.329-37.195 238.293 39.83 54.818 76.821 36.991 183.474-39.83 238.292-38.748 27.65-85.102 36.787-128.608 29.218-17.421-3.033-35.323 2.879-47.013 16.209l-.001.001c-5.425 6.208-11.716 11.918-18.721 16.916-49.496 35.32-118.368 23.689-153.446-26.182-34.501-49.061-22.9-117.406 25.873-152.311a110.776 110.776 0 0122.789-12.502z" stroke="#fff" stroke-width="1.5"/></g><defs><filter id="filter0_ii" x="-8" y="-4" width="595.163" height="560.091" filterUnits="userSpaceOnUse" color-interpolation-filters="sRGB"><feFlood flood-opacity="0" result="BackgroundImageFix"/><feBlend in="SourceGraphic" in2="BackgroundImageFix" result="shape"/><feColorMatrix in="SourceAlpha" values="0 0 0 0 0 0 0 0 0 0 0 0 0 0 0 0 0 0 127 0" result="hardAlpha"/><feOffset dx="-4" dy="-4"/><feGaussianBlur stdDeviation="35"/><feComposite in2="hardAlpha" operator="arithmetic" k2="-1" k3="1"/><feColorMatrix values="0 0 0 0 1 0 0 0 0 1 0 0 0 0 1 0 0 0 0.8 0"/><feBlend in2="shape" result="effect1_innerShadow"/><feColorMatrix in="SourceAlpha" values="0 0 0 0 0 0 0 0 0 0 0 0 0 0 0 0 0 0 127 0" result="hardAlpha"/><feOffset dx="-8" dy="-4"/><feGaussianBlur stdDeviation="25"/><feComposite in2="hardAlpha" operator="arithmetic" k2="-1" k3="1"/><feColorMatrix values="0 0 0 0 1 0 0 0 0 1 0 0 0 0 1 0 0 0 0.8 0"/><feBlend in2="effect1_innerShadow" result="effect2_innerShadow"/></filter></defs></svg>