<svg width="614" height="600" viewBox="0 0 614 600" fill="none" xmlns="http://www.w3.org/2000/svg"><g filter="url(#filter0_ii)"><path d="M242.101 117.716c-37.44 32.344-58.287 76.806-61.817 122.596-1.407 18.427-12.267 34.739-28.693 43.269a117.08 117.08 0 00-22.752 15.382c-47.9 41.495-53.42 114.532-12.32 162.774 41.784 49.036 115.38 54.535 163.998 12.534 6.879-5.943 12.94-12.565 18.042-19.63 10.752-14.832 28.612-22.638 46.85-21.182 46.397 3.698 94.156-10.416 132.125-43.216 75.275-65.03 83.576-178.704 18.546-253.98-65.201-75.474-178.505-83.748-253.979-18.547z" fill="#fff"/></g><path d="M151.821 284.026l.001-.001c16.578-8.609 27.54-25.074 28.961-43.675 3.52-45.664 24.309-90.002 61.645-122.255 75.265-65.02 188.253-56.77 253.274 18.495 64.849 75.067 56.571 188.425-18.495 253.274-37.863 32.71-85.489 46.784-131.758 43.096-18.403-1.469-36.436 6.408-47.294 21.388h-.001c-5.079 7.033-11.114 13.627-17.964 19.545-48.409 41.819-121.687 36.345-163.291-12.48-40.92-48.034-35.425-120.757 12.267-162.072a116.525 116.525 0 0122.655-15.315z" stroke="#C1F4FF"/><defs><filter id="filter0_ii" x="0" y="0" width="613.797" height="600.391" filterUnits="userSpaceOnUse" color-interpolation-filters="sRGB"><feFlood flood-opacity="0" result="BackgroundImageFix"/><feBlend in="SourceGraphic" in2="BackgroundImageFix" result="shape"/><feColorMatrix in="SourceAlpha" values="0 0 0 0 0 0 0 0 0 0 0 0 0 0 0 0 0 0 127 0" result="hardAlpha"/><feOffset dy="1"/><feGaussianBlur stdDeviation="30"/><feComposite in2="hardAlpha" operator="arithmetic" k2="-1" k3="1"/><feColorMatrix values="0 0 0 0 0.756863 0 0 0 0 0.956863 0 0 0 0 1 0 0 0 1 0"/><feBlend in2="shape" result="effect1_innerShadow"/><feColorMatrix in="SourceAlpha" values="0 0 0 0 0 0 0 0 0 0 0 0 0 0 0 0 0 0 127 0" result="hardAlpha"/><feOffset/><feGaussianBlur stdDeviation="10"/><feComposite in2="hardAlpha" operator="arithmetic" k2="-1" k3="1"/><feColorMatrix values="0 0 0 0 0.758333 0 0 0 0 0.9565 0 0 0 0 1 0 0 0 1 0"/><feBlend in2="effect1_innerShadow" result="effect2_innerShadow"/></filter></defs></svg>